<svg xmlns="http://www.w3.org/2000/svg" style="display: none;">
    <symbol id="user" viewBox="0 0 16 16">
        <path d="M8 1.52588e-05C9.06086 1.52588e-05 10.0783 0.421442 10.8284 1.17159C11.5786 1.92173 12 2.93915 12 4.00002C12 5.06088 11.5786 6.0783 10.8284 6.82844C10.0783 7.57859 9.06086 8.00001 8 8.00001C6.93913 8.00001 5.92172 7.57859 5.17157 6.82844C4.42143 6.0783 4 5.06088 4 4.00002C4 2.93915 4.42143 1.92173 5.17157 1.17159C5.92172 0.421442 6.93913 1.52588e-05 8 1.52588e-05ZM8 10C12.42 10 16 11.79 16 14V16H0V14C0 11.79 3.58 10 8 10Z" />
    </symbol>
    <symbol id="arrow-down" width="24" height="24" viewBox="0 0 24 24">
        <path fill="currentColor" d="M12 14.975q-.2 0-.387-.075q-.188-.075-.313-.2l-4.6-4.6q-.275-.275-.275-.7q0-.425.275-.7q.275-.275.7-.275q.425 0 .7.275l3.9 3.9l3.9-3.9q.275-.275.7-.275q.425 0 .7.275q.275.275.275.7q0 .425-.275.7l-4.6 4.6q-.15.15-.325.212q-.175.063-.375.063Z"></path>
    </symbol>
    <symbol id="notification-bell" viewBox="0 0 448 512">
        <path fill="currentColor" d="M224 512c35.32 0 63.97-28.65 63.97-64H160.03c0 35.35 28.65 64 63.97 64zm215.39-149.71c-19.32-20.76-55.47-51.99-55.47-154.29c0-77.7-54.48-139.9-127.94-155.16V32c0-17.67-14.32-32-31.98-32s-31.98 14.33-31.98 32v20.84C118.56 68.1 64.08 130.3 64.08 208c0 102.3-36.15 133.53-55.47 154.29c-6 6.45-8.66 14.16-8.61 21.71c.11 16.4 12.98 32 32.1 32h383.8c19.12 0 32-15.6 32.1-32c.05-7.55-2.61-15.27-8.61-21.71z"></path>
    </symbol>
    <symbol id="wallet" viewBox="0 0 512 512">
        <path d="M202.7 341.3V170.7c0-23.5 19-42.7 42.7-42.7h197v-21.3c0-23.5-18.9-42.7-42.3-42.7H92c-23.7 0-44 18.5-44 42v300c0 23.5 20.3 42 44 42h308c23.5 0 42.3-19.2 42.3-42.7V384h-197c-23.6 0-42.6-19.2-42.6-42.7z" fill="currentColor"></path>
        <path d="M245 186v140c0 8.8 7.2 16 16 16h187c8.8 0 16-7.2 16-16V186c0-8.8-7.2-16-16-16H261c-8.8 0-16 7.2-16 16zm77.1 101.9c-19.3 1.2-35.2-14.7-34-34 1-15.9 13.9-28.8 29.9-29.9 19.3-1.2 35.2 14.7 34 34-1.1 16-14 28.9-29.9 29.9z"></path>
    </symbol>
    <symbol id="candy" viewBox="0 0 24 24">
        <path d="M21.1893 4.66931C20.4746 3.95456 20.8558 3.5734 20.141 2.85865C19.4264 2.14399 19.0452 2.52519 18.3305 1.81053C17.6159 1.09587 17.997 0.714662 17.2824 0L17.2176 0.0647773C15.6387 1.64365 15.6387 4.20352 17.2176 5.78239C18.7965 7.36126 21.3563 7.36126 22.9352 5.78239L23 5.71761C22.2852 5.00295 21.9041 5.38407 21.1893 4.66931Z" />
        <path d="M5.78239 17.2176C4.20352 15.6388 1.64365 15.6388 0.0647773 17.2177L0 17.2824C0.714662 17.9971 1.09582 17.6159 1.81053 18.3306C2.52519 19.0452 2.14399 19.4264 2.85865 20.141C3.5734 20.8558 3.95456 20.4746 4.66931 21.1893C5.38407 21.9041 5.0029 22.2852 5.71761 23L5.78239 22.9352C7.36126 21.3564 7.36126 18.7965 5.78239 17.2176Z" />
        <path d="M16.2648 6.73539C14.4359 4.90644 11.8172 4.34914 9.50659 5.06255C11.7168 7.35222 11.9472 9.42235 12.1698 11.4257C12.381 13.3264 12.5805 15.1216 14.5971 17.1383L14.8226 17.3638C15.3388 17.0709 15.8247 16.7048 16.2648 16.2648C18.8963 13.6332 18.8963 9.36683 16.2648 6.73539Z" />
        <path d="M10.8303 11.5744C10.6191 9.67374 10.4196 7.87848 8.40296 5.86175L8.17754 5.63629C7.66135 5.92918 7.17538 6.29525 6.73533 6.73531C4.10385 9.36678 4.10385 13.6332 6.73533 16.2647C8.56428 18.0936 11.1829 18.6509 13.4935 17.9375C11.2833 15.6479 11.0529 13.5777 10.8303 11.5744Z" />
    </symbol>
    <symbol id="united-kingdom" viewBox="0 0 25 25">
        <g clip-path="url(#clip0_1_748)">
            <path d="M25 4.16663H0V20.8335H25V4.16663Z" fill="#F0F0F0" />
            <path d="M14.0625 4.16656H10.9375V10.9374H0V14.0624H10.9375V20.8332H14.0625V14.0624H25V10.9374H14.0625V4.16656Z" fill="#D80027" />
            <path d="M19.2278 15.3983L25 18.6051V15.3983H19.2278Z" fill="#0052B4" />
            <path d="M15.2173 15.3983L24.9999 20.833V19.2962L17.9836 15.3983H15.2173Z" fill="#0052B4" />
            <path d="M22.3941 20.833L15.2173 16.8455V20.833H22.3941Z" fill="#0052B4" />
            <path d="M15.2173 15.3983L24.9999 20.833V19.2962L17.9836 15.3983H15.2173Z" fill="#F0F0F0" />
            <path d="M15.2173 15.3983L24.9999 20.833V19.2962L17.9836 15.3983H15.2173Z" fill="#D80027" />
            <path d="M4.41118 15.3982L0 17.8489V15.3982H4.41118Z" fill="#0052B4" />
            <path d="M9.78257 16.0893V20.833H1.24463L9.78257 16.0893Z" fill="#0052B4" />
            <path d="M7.01626 15.3983L0 19.2962V20.833L9.78262 15.3983H7.01626Z" fill="#D80027" />
            <path d="M5.77222 9.60125L0 6.39441V9.60125H5.77222Z" fill="#0052B4" />
            <path d="M9.78262 9.60133L0 4.16656V5.70338L7.01626 9.60133H9.78262Z" fill="#0052B4" />
            <path d="M2.60583 4.16656L9.78269 8.15407V4.16656H2.60583Z" fill="#0052B4" />
            <path d="M9.78262 9.60133L0 4.16656V5.70338L7.01626 9.60133H9.78262Z" fill="#F0F0F0" />
            <path d="M9.78262 9.60133L0 4.16656V5.70338L7.01626 9.60133H9.78262Z" fill="#D80027" />
            <path d="M20.5889 9.60147L25 7.15079V9.60147H20.5889Z" fill="#0052B4" />
            <path d="M15.2173 8.91029V4.1666H23.7552L15.2173 8.91029Z" fill="#0052B4" />
            <path d="M17.9836 9.60133L24.9999 5.70338V4.16656L15.2173 9.60133H17.9836Z" fill="#D80027" />
        </g>
        <defs>
            <clipPath id="clip0_1_748">
                <rect width="25" height="25" fill="white" />
            </clipPath>
        </defs>
    </symbol>
    <symbol id="shoe" viewBox="0 0 24 24">
        <path fill="currentColor" d="M2 15s0-3 2-3c.68 0 1.46-.05 2.28-.18C7.2 12.54 8.5 13 10 13h.25l-1.69-1.71c.35-.11.69-.24 1.03-.38l1.91 1.91c.39-.08.75-.19 1.08-.32l-2.03-2.05c.3-.17.59-.34.88-.54L13.5 12c.3-.21.54-.44.75-.68l-2.03-2.03c.24-.22.48-.46.7-.71l1.87 1.87c.12-.31.21-.62.21-.95c0-.85-.45-1.61-1.16-2.22c.05-.09.11-.18.16-.28l1.53-.77c.85.94 2.61 1.61 4.72 1.74l.05.03h.7s1 1 1 4.5c0 .57 0 1.07-.04 1.5H19c-1.1 0-2.42.26-3.7.5c-1.18.26-2.4.5-3.3.5H2m19 2s.58 0 .86-2H19c-2 0-5 1-7 1H2.28c.34.6.98 1 1.72 1h17Z"></path>
    </symbol>
    <symbol id="casino" viewBox="0 0 50 50">
        <path fill="currentColor" d="M49 10.489c.604-.457 1-1.173 1-1.989a2.5 2.5 0 1 0-5 0a2.49 2.49 0 0 0 1 1.989V26h-9v8h10v-.297A3.994 3.994 0 0 0 49.5 30c0-.691-.191-1.332-.5-1.899V10.489zM6 17c1.021 0 1.73.172 3 0c0 0-4.016 2.666-4.016 6H10s.006-5.554 3-9l-1-1s-2 1-4 0c0 0-2 0-4 1v-1H3v6h1s0-2 2-2zm14 0c1.021 0 1.73.172 3 0c0 0-4.016 2.666-4.016 6H24s.006-5.554 3-9l-1-1s-2 1-4 0c0 0-2 0-4 1v-1h-1v6h1s0-2 2-2zM38 7V5H25.88c-.456-2.002-2.239-3.5-4.38-3.5S17.576 2.998 17.12 5H5v2H0v41h44V7h-6zm-22 4h12v14H16V11zM2 11h12v14H2V11zm36 32H5v-7h33v7zm4-18H30V11h12v14zm-8-8c1.021 0 1.73.172 3 0c0 0-4.016 2.666-4.016 6H38s.006-5.554 3-9l-1-1s-2 1-4 0c0 0-2 0-4 1v-1h-1v6h1s0-2 2-2z"></path>
    </symbol>
    <symbol id="dice" viewBox="0 0 24 24">
        <path d="M21 16.5a1 1 0 0 1-.527.881l-7.907 4.443a.996.996 0 0 1-1.132 0l-7.907-4.443A1 1 0 0 1 3 16.5v-9a1 1 0 0 1 .527-.881l7.907-4.443a.995.995 0 0 1 1.132 0l7.907 4.443A1 1 0 0 1 21 7.5v9zM5.5 14.316c-.552-.313-1-.118-1 .434s.448 1.253 1 1.566c.552.313 1 .118 1-.434s-.448-1.253-1-1.566zm0-4c-.552-.313-1-.118-1 .434s.448 1.253 1 1.566c.552.313 1 .118 1-.434s-.448-1.253-1-1.566zm4 6.264c-.552-.313-1-.118-1 .434s.448 1.253 1 1.566c.552.312 1 .118 1-.434c0-.553-.448-1.254-1-1.566zm-2-3.132c-.552-.313-1-.118-1 .434s.448 1.253 1 1.566c.552.312 1 .118 1-.434c0-.553-.448-1.254-1-1.566zm2-.868c-.552-.313-1-.119-1 .434c0 .552.448 1.253 1 1.566c.552.312 1 .118 1-.434c0-.553-.448-1.254-1-1.566zm9 1.736c-.552.313-1 1.014-1 1.566s.448.746 1 .434c.552-.313 1-1.014 1-1.566s-.448-.747-1-.434zm0-4c-.552.313-1 1.014-1 1.566s.448.747 1 .434s1-1.014 1-1.566s-.448-.747-1-.434zm-4 6.264c-.552.312-1 1.014-1 1.566s.448.746 1 .434c.552-.313 1-1.014 1-1.566s-.448-.747-1-.434zm0-4c-.552.312-1 1.014-1 1.566s.448.746 1 .434c.552-.313 1-1.014 1-1.566s-.448-.747-1-.434zm1.992-4.81c.547-.321.602-.806.124-1.082s-1.31-.24-1.856.083c-.547.322-.602.807-.124 1.083c.478.276 1.31.239 1.856-.083zm-7.425.333c.547-.322.603-.807.124-1.083c-.478-.276-1.309-.239-1.856.083c-.547.322-.602.807-.124 1.083c.478.276 1.31.24 1.856-.083zm3.713-.166c.546-.322.602-.807.124-1.083c-.479-.276-1.31-.239-1.857.083c-.546.322-.602.807-.124 1.083c.479.276 1.31.239 1.857-.083z" fill="currentColor"></path>
    </symbol>
    <symbol id="gift" viewBox="0 0 24 24">
        <path fill="currentColor" d="M9.06 1.93C7.17 1.92 5.33 3.74 6.17 6H3a2 2 0 0 0-2 2v2a1 1 0 0 0 1 1h9V8h2v3h9a1 1 0 0 0 1-1V8a2 2 0 0 0-2-2h-3.17C19 2.73 14.6.42 12.57 3.24L12 4l-.57-.78c-.63-.89-1.5-1.28-2.37-1.29M9 4c.89 0 1.34 1.08.71 1.71C9.08 6.34 8 5.89 8 5a1 1 0 0 1 1-1m6 0c.89 0 1.34 1.08.71 1.71c-.63.63-1.71.18-1.71-.71a1 1 0 0 1 1-1M2 12v8a2 2 0 0 0 2 2h16a2 2 0 0 0 2-2v-8h-9v8h-2v-8H2Z"></path>
    </symbol>
    <symbol id="location" viewBox="0 0 32 32">
        <path fill="currentColor" d="M16 2A11.013 11.013 0 0 0 5 13a10.889 10.889 0 0 0 2.216 6.6s.3.395.349.452L16 30l8.439-9.953c.044-.053.345-.447.345-.447l.001-.003A10.885 10.885 0 0 0 27 13A11.013 11.013 0 0 0 16 2Zm0 15a4 4 0 1 1 4-4a4.005 4.005 0 0 1-4 4Z"></path>
        <circle cx="16" cy="13" r="4" fill="none"></circle>
    </symbol>
    <symbol id="calendar" viewBox="0 0 18 20">
        <path d="M6 9H4V11H6V9ZM10 9H8V11H10V9ZM14 9H12V11H14V9ZM16 2H15V0H13V2H5V0H3V2H2C0.89 2 0 2.9 0 4V18C0 18.5304 0.210714 19.0391 0.585786 19.4142C0.960859 19.7893 1.46957 20 2 20H16C16.5304 20 17.0391 19.7893 17.4142 19.4142C17.7893 19.0391 18 18.5304 18 18V4C18 3.46957 17.7893 2.96086 17.4142 2.58579C17.0391 2.21071 16.5304 2 16 2ZM16 18H2V7H16V18Z" fill="#4B4B4B" />
    </symbol>
    <symbol id="info" viewBox="0 0 24 24">
        <path fill="currentColor" d="M12 1.999c5.524 0 10.002 4.478 10.002 10.002c0 5.523-4.478 10.001-10.002 10.001c-5.524 0-10-4.478-10-10.001C1.999 6.477 6.476 1.999 12 1.999Zm0 1.5a8.502 8.502 0 1 0 0 17.003A8.502 8.502 0 0 0 12 3.5Zm-.004 7a.75.75 0 0 1 .744.648l.007.102l.004 5.502a.75.75 0 0 1-1.494.102l-.006-.101l-.004-5.502a.75.75 0 0 1 .75-.75Zm.005-3.497a.999.999 0 1 1 0 1.997a.999.999 0 0 1 0-1.997Z"></path>
    </symbol>
    <symbol id="hamburger-menu" viewBox="0 0 48 48">
        <path fill="none" stroke="currentColor" stroke-linecap="round" stroke-linejoin="round" stroke-width="4" d="M7.95 11.95h32m-32 12h32m-32 12h32"></path>
    </symbol>
    <symbol id="message" viewBox="0 0 24 24">
        <path d="M20 2H4C3.46957 2 2.96086 2.21071 2.58579 2.58579C2.21071 2.96086 2 3.46957 2 4V22L6 18H20C20.5304 18 21.0391 17.7893 21.4142 17.4142C21.7893 17.0391 22 16.5304 22 16V4C22 3.46957 21.7893 2.96086 21.4142 2.58579C21.0391 2.21071 20.5304 2 20 2ZM6 9H18V11H6V9ZM14 14H6V12H14V14ZM18 8H6V6H18" fill="currentColor" />
    </symbol>
    <symbol id="ball" viewBox="0 0 512 512">
        <path d="M191.6 272c-3.8 55-26.4 107.1-64.5 147.7 31.6 25 70.9 41 112.9 44.3V272h-48.4z" fill="currentColor"></path>
        <path d="M272 464c42-3.3 81.5-19.4 113.1-44.5-38-40.6-60.5-92.5-64.3-147.5H272v192z" fill="currentColor"></path>
        <path d="M240 48c-42 3.2-80.5 19-111.9 43.6 38 40.9 60.3 93.4 63.7 148.4H240V48z" fill="currentColor"></path>
        <path d="M320.7 240c3.4-55 25.6-107.4 63.5-148.3C352.7 67.1 314 51.2 272 48v192h48.7z" fill="currentColor"></path>
        <path d="M408.6 114.2c-17.2 18.5-30.7 39.7-40.1 62.9-8.2 20.2-13.1 40.9-14.6 62.9H464c-3.7-48-24.1-92.2-55.4-125.8z" fill="currentColor"></path>
        <path d="M368.5 333.1c9.6 23.7 23.3 45.1 40.9 63.8C440.3 363.4 460.3 320 464 272H354.1c1.6 21 6.5 41.5 14.4 61.1z" fill="currentColor"></path>
        <path d="M143.9 177.1c-9.5-23.3-23-44.5-40.3-63.1-31.4 33.6-51.9 78-55.6 126h110.5c-1.6-22-6.5-42.8-14.6-62.9z" fill="currentColor"></path>
        <path d="M102.7 397.1c17.7-18.8 31.5-40.3 41.1-64 8-19.6 12.8-40.1 14.5-61.1H48c3.7 48 23.8 91.6 54.7 125.1z" fill="currentColor"></path>
    </symbol>
</svg>